<mxfile host="app.diagrams.net" modified="2024-01-30T13:28:20.587Z" agent="Mozilla/5.0 (Windows NT 10.0; Win64; x64) AppleWebKit/537.36 (KHTML, like Gecko) Chrome/120.0.0.0 Safari/537.36" etag="T4doK9SBSDIuBxKo_Ekq" version="22.1.21" type="github">
  <diagram name="Page-1" id="oMdRMdKU0HR-XkoTVVGD">
    <mxGraphModel dx="1617" dy="587" grid="1" gridSize="10" guides="1" tooltips="1" connect="1" arrows="1" fold="1" page="1" pageScale="1" pageWidth="850" pageHeight="1100" math="0" shadow="0">
      <root>
        <mxCell id="0" />
        <mxCell id="1" parent="0" />
        <mxCell id="6c8GsuKuTrvKpeJCDYSj-2" value="" style="rounded=0;whiteSpace=wrap;html=1;fillColor=#f5f5f5;gradientColor=#b3b3b3;strokeColor=#666666;" vertex="1" parent="1">
          <mxGeometry x="230" y="190" width="1050" height="460" as="geometry" />
        </mxCell>
        <mxCell id="6c8GsuKuTrvKpeJCDYSj-3" value="&lt;h1&gt;APECHAIN X GAMEFIED&amp;nbsp;WALLET&lt;/h1&gt;&lt;p&gt;&lt;br&gt;&lt;/p&gt;" style="text;html=1;strokeColor=none;fillColor=none;spacing=5;spacingTop=-20;whiteSpace=wrap;overflow=hidden;rounded=0;" vertex="1" parent="1">
          <mxGeometry x="300" y="230" width="410" height="40" as="geometry" />
        </mxCell>
        <mxCell id="6c8GsuKuTrvKpeJCDYSj-19" style="edgeStyle=orthogonalEdgeStyle;rounded=0;orthogonalLoop=1;jettySize=auto;html=1;" edge="1" parent="1" source="6c8GsuKuTrvKpeJCDYSj-4" target="6c8GsuKuTrvKpeJCDYSj-15">
          <mxGeometry relative="1" as="geometry" />
        </mxCell>
        <mxCell id="6c8GsuKuTrvKpeJCDYSj-4" value="Wallet Extension&amp;nbsp;" style="rounded=1;whiteSpace=wrap;html=1;fillColor=#dae8fc;strokeColor=#6c8ebf;" vertex="1" parent="1">
          <mxGeometry x="700" y="360" width="120" height="60" as="geometry" />
        </mxCell>
        <mxCell id="6c8GsuKuTrvKpeJCDYSj-13" value="" style="edgeStyle=orthogonalEdgeStyle;rounded=0;orthogonalLoop=1;jettySize=auto;html=1;" edge="1" parent="1" source="6c8GsuKuTrvKpeJCDYSj-5" target="6c8GsuKuTrvKpeJCDYSj-12">
          <mxGeometry relative="1" as="geometry" />
        </mxCell>
        <mxCell id="6c8GsuKuTrvKpeJCDYSj-5" value="Chain Providers" style="ellipse;whiteSpace=wrap;html=1;aspect=fixed;fillColor=#f8cecc;strokeColor=#b85450;" vertex="1" parent="1">
          <mxGeometry x="550" y="460" width="80" height="80" as="geometry" />
        </mxCell>
        <mxCell id="6c8GsuKuTrvKpeJCDYSj-6" value="Helper SDKs &amp;amp; Indexers" style="rounded=0;whiteSpace=wrap;html=1;fillColor=#dae8fc;strokeColor=#6c8ebf;" vertex="1" parent="1">
          <mxGeometry x="280" y="470" width="120" height="60" as="geometry" />
        </mxCell>
        <mxCell id="6c8GsuKuTrvKpeJCDYSj-8" style="edgeStyle=orthogonalEdgeStyle;rounded=0;orthogonalLoop=1;jettySize=auto;html=1;entryX=1;entryY=0.5;entryDx=0;entryDy=0;" edge="1" parent="1" source="6c8GsuKuTrvKpeJCDYSj-7" target="6c8GsuKuTrvKpeJCDYSj-6">
          <mxGeometry relative="1" as="geometry">
            <Array as="points">
              <mxPoint x="470" y="500" />
            </Array>
          </mxGeometry>
        </mxCell>
        <mxCell id="6c8GsuKuTrvKpeJCDYSj-9" style="edgeStyle=orthogonalEdgeStyle;rounded=0;orthogonalLoop=1;jettySize=auto;html=1;entryX=0;entryY=0.5;entryDx=0;entryDy=0;" edge="1" parent="1" source="6c8GsuKuTrvKpeJCDYSj-7" target="6c8GsuKuTrvKpeJCDYSj-5">
          <mxGeometry relative="1" as="geometry">
            <Array as="points">
              <mxPoint x="470" y="500" />
            </Array>
          </mxGeometry>
        </mxCell>
        <mxCell id="6c8GsuKuTrvKpeJCDYSj-7" value="APECHAIN" style="rounded=0;whiteSpace=wrap;html=1;fillColor=#bac8d3;strokeColor=#23445d;" vertex="1" parent="1">
          <mxGeometry x="280" y="559" width="300" height="60" as="geometry" />
        </mxCell>
        <mxCell id="6c8GsuKuTrvKpeJCDYSj-11" value="&lt;h1&gt;APEGAME X GAMEFIED WALLET&lt;/h1&gt;&lt;p&gt;&lt;br&gt;&lt;/p&gt;" style="text;html=1;strokeColor=none;fillColor=none;spacing=5;spacingTop=-20;whiteSpace=wrap;overflow=hidden;rounded=0;" vertex="1" parent="1">
          <mxGeometry x="810" y="230" width="400" height="40" as="geometry" />
        </mxCell>
        <mxCell id="6c8GsuKuTrvKpeJCDYSj-14" value="" style="edgeStyle=orthogonalEdgeStyle;rounded=0;orthogonalLoop=1;jettySize=auto;html=1;" edge="1" parent="1" source="6c8GsuKuTrvKpeJCDYSj-12" target="6c8GsuKuTrvKpeJCDYSj-4">
          <mxGeometry relative="1" as="geometry" />
        </mxCell>
        <mxCell id="6c8GsuKuTrvKpeJCDYSj-17" style="edgeStyle=orthogonalEdgeStyle;rounded=0;orthogonalLoop=1;jettySize=auto;html=1;entryX=0;entryY=0.5;entryDx=0;entryDy=0;" edge="1" parent="1" source="6c8GsuKuTrvKpeJCDYSj-12" target="6c8GsuKuTrvKpeJCDYSj-16">
          <mxGeometry relative="1" as="geometry" />
        </mxCell>
        <mxCell id="6c8GsuKuTrvKpeJCDYSj-12" value="99STARZ&lt;br&gt;WALLET&lt;br&gt;PROVIDER" style="ellipse;whiteSpace=wrap;html=1;aspect=fixed;fillColor=#f8cecc;strokeColor=#b85450;" vertex="1" parent="1">
          <mxGeometry x="720" y="460" width="80" height="80" as="geometry" />
        </mxCell>
        <mxCell id="6c8GsuKuTrvKpeJCDYSj-21" style="edgeStyle=orthogonalEdgeStyle;rounded=0;orthogonalLoop=1;jettySize=auto;html=1;entryX=0.75;entryY=0;entryDx=0;entryDy=0;" edge="1" parent="1" source="6c8GsuKuTrvKpeJCDYSj-15" target="6c8GsuKuTrvKpeJCDYSj-20">
          <mxGeometry relative="1" as="geometry">
            <Array as="points">
              <mxPoint x="1158" y="390" />
            </Array>
          </mxGeometry>
        </mxCell>
        <mxCell id="6c8GsuKuTrvKpeJCDYSj-15" value="Game App" style="rounded=1;whiteSpace=wrap;html=1;fillColor=#d5e8d4;gradientColor=#97d077;strokeColor=#82b366;" vertex="1" parent="1">
          <mxGeometry x="940" y="360" width="120" height="60" as="geometry" />
        </mxCell>
        <mxCell id="6c8GsuKuTrvKpeJCDYSj-18" value="" style="edgeStyle=orthogonalEdgeStyle;rounded=0;orthogonalLoop=1;jettySize=auto;html=1;" edge="1" parent="1" source="6c8GsuKuTrvKpeJCDYSj-16" target="6c8GsuKuTrvKpeJCDYSj-15">
          <mxGeometry relative="1" as="geometry" />
        </mxCell>
        <mxCell id="6c8GsuKuTrvKpeJCDYSj-16" value="Provider Injection" style="ellipse;whiteSpace=wrap;html=1;aspect=fixed;fillColor=#f8cecc;strokeColor=#b85450;" vertex="1" parent="1">
          <mxGeometry x="960" y="460" width="80" height="80" as="geometry" />
        </mxCell>
        <mxCell id="6c8GsuKuTrvKpeJCDYSj-20" value="APECHAIN" style="rounded=0;whiteSpace=wrap;html=1;fillColor=#bac8d3;strokeColor=#23445d;" vertex="1" parent="1">
          <mxGeometry x="940" y="560" width="290" height="60" as="geometry" />
        </mxCell>
        <mxCell id="6c8GsuKuTrvKpeJCDYSj-25" value="" style="edgeStyle=orthogonalEdgeStyle;rounded=0;orthogonalLoop=1;jettySize=auto;html=1;" edge="1" parent="1" source="6c8GsuKuTrvKpeJCDYSj-22" target="6c8GsuKuTrvKpeJCDYSj-12">
          <mxGeometry relative="1" as="geometry" />
        </mxCell>
        <mxCell id="6c8GsuKuTrvKpeJCDYSj-22" value="GAMEFIED PLATFORM" style="rounded=0;whiteSpace=wrap;html=1;fillColor=#bac8d3;strokeColor=#23445d;" vertex="1" parent="1">
          <mxGeometry x="610" y="560" width="300" height="60" as="geometry" />
        </mxCell>
        <mxCell id="6c8GsuKuTrvKpeJCDYSj-26" value="" style="endArrow=none;html=1;rounded=0;" edge="1" parent="1" target="6c8GsuKuTrvKpeJCDYSj-2">
          <mxGeometry width="50" height="50" relative="1" as="geometry">
            <mxPoint x="755" y="300" as="sourcePoint" />
            <mxPoint x="790" y="250" as="targetPoint" />
          </mxGeometry>
        </mxCell>
      </root>
    </mxGraphModel>
  </diagram>
</mxfile>
